<mxfile host="app.diagrams.net" modified="2020-05-26T12:56:15.405Z" agent="5.0 (Macintosh; Intel Mac OS X 10_15_4) AppleWebKit/537.36 (KHTML, like Gecko) Chrome/81.0.4044.138 Safari/537.36" etag="ZJ946WCQFZGBMspY_xfq" version="13.1.3" type="github">
  <diagram id="gpXZQzjekGS3WH-AGaMR" name="Page-1">
    <mxGraphModel dx="1251" dy="706" grid="1" gridSize="10" guides="1" tooltips="1" connect="1" arrows="1" fold="1" page="1" pageScale="1" pageWidth="827" pageHeight="1169" math="0" shadow="0">
      <root>
        <mxCell id="0" />
        <mxCell id="1" parent="0" />
        <mxCell id="9lm15JStF0xUO2hvtiot-138" style="edgeStyle=orthogonalEdgeStyle;rounded=0;orthogonalLoop=1;jettySize=auto;html=1;exitX=0.55;exitY=0.95;exitDx=0;exitDy=0;exitPerimeter=0;entryX=0.5;entryY=0;entryDx=0;entryDy=0;" parent="1" source="9lm15JStF0xUO2hvtiot-98" target="9lm15JStF0xUO2hvtiot-135" edge="1">
          <mxGeometry relative="1" as="geometry" />
        </mxCell>
        <mxCell id="9lm15JStF0xUO2hvtiot-98" value="Internet" style="ellipse;shape=cloud;whiteSpace=wrap;html=1;" parent="1" vertex="1">
          <mxGeometry x="490" y="10" width="120" height="80" as="geometry" />
        </mxCell>
        <mxCell id="9lm15JStF0xUO2hvtiot-114" value="k8s master1 + etcd1" style="rounded=0;whiteSpace=wrap;html=1;" parent="1" vertex="1">
          <mxGeometry x="300.003164556962" y="260" width="82.0253164556962" height="42" as="geometry" />
        </mxCell>
        <mxCell id="9lm15JStF0xUO2hvtiot-115" value="k8s master2 + etcd2" style="rounded=0;whiteSpace=wrap;html=1;" parent="1" vertex="1">
          <mxGeometry x="388.86392405063293" y="260" width="82.0253164556962" height="42" as="geometry" />
        </mxCell>
        <mxCell id="9lm15JStF0xUO2hvtiot-116" value="k8s master3 + etcd3" style="rounded=0;whiteSpace=wrap;html=1;" parent="1" vertex="1">
          <mxGeometry x="477.7246835443038" y="260" width="82.0253164556962" height="42" as="geometry" />
        </mxCell>
        <mxCell id="9lm15JStF0xUO2hvtiot-117" value="Patroni Postgres Cluster" style="shape=cylinder;whiteSpace=wrap;html=1;boundedLbl=1;backgroundOutline=1;" parent="1" vertex="1">
          <mxGeometry x="349.88" y="434" width="160" height="101.5" as="geometry" />
        </mxCell>
        <mxCell id="9lm15JStF0xUO2hvtiot-118" style="edgeStyle=orthogonalEdgeStyle;rounded=0;orthogonalLoop=1;jettySize=auto;html=1;exitX=0;exitY=0.25;exitDx=0;exitDy=0;entryX=0.5;entryY=1;entryDx=0;entryDy=0;fillColor=#f8cecc;strokeColor=#b85450;dashed=1;" parent="1" source="9lm15JStF0xUO2hvtiot-125" target="9lm15JStF0xUO2hvtiot-116" edge="1">
          <mxGeometry relative="1" as="geometry" />
        </mxCell>
        <mxCell id="9lm15JStF0xUO2hvtiot-119" style="edgeStyle=orthogonalEdgeStyle;rounded=0;orthogonalLoop=1;jettySize=auto;html=1;exitX=0;exitY=0.5;exitDx=0;exitDy=0;entryX=0.5;entryY=1;entryDx=0;entryDy=0;fillColor=#f8cecc;strokeColor=#b85450;dashed=1;" parent="1" source="9lm15JStF0xUO2hvtiot-125" target="9lm15JStF0xUO2hvtiot-115" edge="1">
          <mxGeometry relative="1" as="geometry" />
        </mxCell>
        <mxCell id="9lm15JStF0xUO2hvtiot-120" style="edgeStyle=orthogonalEdgeStyle;rounded=0;orthogonalLoop=1;jettySize=auto;html=1;exitX=0;exitY=0.75;exitDx=0;exitDy=0;fillColor=#f8cecc;strokeColor=#b85450;dashed=1;" parent="1" source="9lm15JStF0xUO2hvtiot-125" target="9lm15JStF0xUO2hvtiot-114" edge="1">
          <mxGeometry relative="1" as="geometry" />
        </mxCell>
        <mxCell id="9lm15JStF0xUO2hvtiot-121" value="" style="group" parent="1" vertex="1" connectable="0">
          <mxGeometry x="580" y="260" width="80" height="174" as="geometry" />
        </mxCell>
        <mxCell id="9lm15JStF0xUO2hvtiot-122" value="k8s worker1" style="rounded=0;whiteSpace=wrap;html=1;fillColor=#f5f5f5;strokeColor=#666666;fontColor=#333333;" parent="9lm15JStF0xUO2hvtiot-121" vertex="1">
          <mxGeometry y="20" width="80" height="154" as="geometry" />
        </mxCell>
        <mxCell id="9lm15JStF0xUO2hvtiot-123" value="Nginx-ingress 30443 nodeport" style="rounded=0;whiteSpace=wrap;html=1;" parent="9lm15JStF0xUO2hvtiot-121" vertex="1">
          <mxGeometry width="80" height="46" as="geometry" />
        </mxCell>
        <mxCell id="9lm15JStF0xUO2hvtiot-124" value="Dx apps" style="rounded=0;whiteSpace=wrap;html=1;" parent="9lm15JStF0xUO2hvtiot-121" vertex="1">
          <mxGeometry y="148" width="80" height="26" as="geometry" />
        </mxCell>
        <mxCell id="9lm15JStF0xUO2hvtiot-125" value="Nginx api-server lb" style="rounded=0;whiteSpace=wrap;html=1;" parent="9lm15JStF0xUO2hvtiot-121" vertex="1">
          <mxGeometry y="122" width="80" height="26" as="geometry" />
        </mxCell>
        <mxCell id="9lm15JStF0xUO2hvtiot-126" value="" style="group" parent="1" vertex="1" connectable="0">
          <mxGeometry x="710" y="260" width="80" height="174" as="geometry" />
        </mxCell>
        <mxCell id="9lm15JStF0xUO2hvtiot-127" value="k8s worker2" style="rounded=0;whiteSpace=wrap;html=1;fillColor=#f5f5f5;strokeColor=#666666;fontColor=#333333;" parent="9lm15JStF0xUO2hvtiot-126" vertex="1">
          <mxGeometry y="20" width="80" height="154" as="geometry" />
        </mxCell>
        <mxCell id="9lm15JStF0xUO2hvtiot-128" value="Nginx-ingress 30443 nodeport" style="rounded=0;whiteSpace=wrap;html=1;" parent="9lm15JStF0xUO2hvtiot-126" vertex="1">
          <mxGeometry width="80" height="46" as="geometry" />
        </mxCell>
        <mxCell id="9lm15JStF0xUO2hvtiot-129" value="Dx apps" style="rounded=0;whiteSpace=wrap;html=1;" parent="9lm15JStF0xUO2hvtiot-126" vertex="1">
          <mxGeometry y="148" width="80" height="26" as="geometry" />
        </mxCell>
        <mxCell id="9lm15JStF0xUO2hvtiot-130" value="Nginx api-server lb" style="rounded=0;whiteSpace=wrap;html=1;" parent="9lm15JStF0xUO2hvtiot-126" vertex="1">
          <mxGeometry y="122" width="80" height="26" as="geometry" />
        </mxCell>
        <mxCell id="9lm15JStF0xUO2hvtiot-131" style="edgeStyle=orthogonalEdgeStyle;rounded=0;orthogonalLoop=1;jettySize=auto;html=1;exitX=0.5;exitY=1;exitDx=0;exitDy=0;entryX=1;entryY=0.7;entryDx=0;entryDy=0;fillColor=#dae8fc;strokeColor=#6c8ebf;" parent="1" source="9lm15JStF0xUO2hvtiot-129" target="9lm15JStF0xUO2hvtiot-117" edge="1">
          <mxGeometry relative="1" as="geometry" />
        </mxCell>
        <mxCell id="9lm15JStF0xUO2hvtiot-132" style="edgeStyle=orthogonalEdgeStyle;rounded=0;orthogonalLoop=1;jettySize=auto;html=1;exitX=0.5;exitY=1;exitDx=0;exitDy=0;entryX=1;entryY=0.5;entryDx=0;entryDy=0;fillColor=#dae8fc;strokeColor=#6c8ebf;" parent="1" source="9lm15JStF0xUO2hvtiot-124" target="9lm15JStF0xUO2hvtiot-117" edge="1">
          <mxGeometry relative="1" as="geometry" />
        </mxCell>
        <mxCell id="9lm15JStF0xUO2hvtiot-139" style="edgeStyle=orthogonalEdgeStyle;rounded=0;orthogonalLoop=1;jettySize=auto;html=1;exitX=1;exitY=0.75;exitDx=0;exitDy=0;entryX=0.75;entryY=0;entryDx=0;entryDy=0;" parent="1" source="9lm15JStF0xUO2hvtiot-135" target="9lm15JStF0xUO2hvtiot-123" edge="1">
          <mxGeometry relative="1" as="geometry" />
        </mxCell>
        <mxCell id="9lm15JStF0xUO2hvtiot-140" style="edgeStyle=orthogonalEdgeStyle;rounded=0;orthogonalLoop=1;jettySize=auto;html=1;exitX=1;exitY=0.75;exitDx=0;exitDy=0;entryX=0.75;entryY=0;entryDx=0;entryDy=0;" parent="1" source="9lm15JStF0xUO2hvtiot-135" target="9lm15JStF0xUO2hvtiot-128" edge="1">
          <mxGeometry relative="1" as="geometry" />
        </mxCell>
        <mxCell id="9lm15JStF0xUO2hvtiot-141" style="edgeStyle=orthogonalEdgeStyle;rounded=0;orthogonalLoop=1;jettySize=auto;html=1;exitX=0;exitY=0.75;exitDx=0;exitDy=0;fillColor=#f8cecc;strokeColor=#b85450;dashed=1;" parent="1" source="9lm15JStF0xUO2hvtiot-135" target="9lm15JStF0xUO2hvtiot-114" edge="1">
          <mxGeometry relative="1" as="geometry" />
        </mxCell>
        <mxCell id="9lm15JStF0xUO2hvtiot-142" style="edgeStyle=orthogonalEdgeStyle;rounded=0;orthogonalLoop=1;jettySize=auto;html=1;exitX=0;exitY=0.75;exitDx=0;exitDy=0;fillColor=#f8cecc;strokeColor=#b85450;dashed=1;" parent="1" source="9lm15JStF0xUO2hvtiot-135" target="9lm15JStF0xUO2hvtiot-115" edge="1">
          <mxGeometry relative="1" as="geometry" />
        </mxCell>
        <mxCell id="9lm15JStF0xUO2hvtiot-143" style="edgeStyle=orthogonalEdgeStyle;rounded=0;orthogonalLoop=1;jettySize=auto;html=1;exitX=0;exitY=0.75;exitDx=0;exitDy=0;fillColor=#f8cecc;strokeColor=#b85450;dashed=1;" parent="1" source="9lm15JStF0xUO2hvtiot-135" target="9lm15JStF0xUO2hvtiot-116" edge="1">
          <mxGeometry relative="1" as="geometry" />
        </mxCell>
        <mxCell id="9lm15JStF0xUO2hvtiot-135" value="MetalLB" style="rounded=0;whiteSpace=wrap;html=1;" parent="1" vertex="1">
          <mxGeometry x="490" y="150" width="120" height="60" as="geometry" />
        </mxCell>
        <mxCell id="H98rAg-c5zLybSKhwUSo-1" value="" style="endArrow=none;html=1;fillColor=#f8cecc;strokeColor=#b85450;dashed=1;" edge="1" parent="1">
          <mxGeometry width="50" height="50" relative="1" as="geometry">
            <mxPoint x="220" y="486" as="sourcePoint" />
            <mxPoint x="280" y="486" as="targetPoint" />
          </mxGeometry>
        </mxCell>
        <mxCell id="H98rAg-c5zLybSKhwUSo-2" value="api-server http requests" style="edgeLabel;html=1;align=center;verticalAlign=middle;resizable=0;points=[];" vertex="1" connectable="0" parent="H98rAg-c5zLybSKhwUSo-1">
          <mxGeometry x="0.1455" y="-1" relative="1" as="geometry">
            <mxPoint x="21" y="-10" as="offset" />
          </mxGeometry>
        </mxCell>
        <mxCell id="H98rAg-c5zLybSKhwUSo-3" value="" style="endArrow=none;html=1;fillColor=#dae8fc;strokeColor=#6c8ebf;" edge="1" parent="1">
          <mxGeometry width="50" height="50" relative="1" as="geometry">
            <mxPoint x="220" y="506" as="sourcePoint" />
            <mxPoint x="280" y="506" as="targetPoint" />
          </mxGeometry>
        </mxCell>
        <mxCell id="H98rAg-c5zLybSKhwUSo-4" value="postgres" style="edgeLabel;html=1;align=center;verticalAlign=middle;resizable=0;points=[];" vertex="1" connectable="0" parent="H98rAg-c5zLybSKhwUSo-3">
          <mxGeometry x="0.1455" y="-1" relative="1" as="geometry">
            <mxPoint x="-16" y="-11" as="offset" />
          </mxGeometry>
        </mxCell>
        <mxCell id="H98rAg-c5zLybSKhwUSo-5" value="" style="endArrow=none;html=1;fillColor=#d5e8d4;strokeColor=#82b366;" edge="1" parent="1">
          <mxGeometry width="50" height="50" relative="1" as="geometry">
            <mxPoint x="220" y="526" as="sourcePoint" />
            <mxPoint x="280" y="526" as="targetPoint" />
          </mxGeometry>
        </mxCell>
        <mxCell id="H98rAg-c5zLybSKhwUSo-6" value="dxcore http requests" style="edgeLabel;html=1;align=center;verticalAlign=middle;resizable=0;points=[];" vertex="1" connectable="0" parent="H98rAg-c5zLybSKhwUSo-5">
          <mxGeometry x="0.1455" y="-1" relative="1" as="geometry">
            <mxPoint x="13" y="-11" as="offset" />
          </mxGeometry>
        </mxCell>
        <mxCell id="H98rAg-c5zLybSKhwUSo-7" value="" style="endArrow=none;html=1;" edge="1" parent="1">
          <mxGeometry width="50" height="50" relative="1" as="geometry">
            <mxPoint x="220" y="470" as="sourcePoint" />
            <mxPoint x="280" y="470" as="targetPoint" />
          </mxGeometry>
        </mxCell>
        <mxCell id="H98rAg-c5zLybSKhwUSo-8" value="clients http requests" style="edgeLabel;html=1;align=center;verticalAlign=middle;resizable=0;points=[];" vertex="1" connectable="0" parent="H98rAg-c5zLybSKhwUSo-7">
          <mxGeometry x="0.1455" y="-1" relative="1" as="geometry">
            <mxPoint x="13" y="-11" as="offset" />
          </mxGeometry>
        </mxCell>
      </root>
    </mxGraphModel>
  </diagram>
</mxfile>
